<?xml version="1.0" encoding="UTF-8"?>
<svg version="1.1" xmlns="http://www.w3.org/2000/svg" width="44" height="60">
<path d="M0 0 C14.52 0 29.04 0 44 0 C44 19.8 44 39.6 44 60 C29.48 60 14.96 60 0 60 C0 40.2 0 20.4 0 0 Z " fill="#343132" transform="translate(0,0)"/>
<path d="M0 0 C0.33 0 0.66 0 1 0 C1.33 14.19 1.66 28.38 2 43 C3.98 41.02 5.96 39.04 8 37 C7.01 33.535 7.01 33.535 6 30 C4.68 29.67 3.36 29.34 2 29 C3.65 28.67 5.3 28.34 7 28 C7 28.99 7 29.98 7 31 C7.66 31 8.32 31 9 31 C10.14501953 32.56054688 10.14501953 32.56054688 11.3828125 34.71875 C12.04990234 35.86923828 12.04990234 35.86923828 12.73046875 37.04296875 C13.19066406 37.85378906 13.65085937 38.66460937 14.125 39.5 C14.59292969 40.31082031 15.06085937 41.12164062 15.54296875 41.95703125 C16.70201772 43.96762641 17.85396471 45.98196761 19 48 C19.99 47.34 20.98 46.68 22 46 C22.33 47.65 22.66 49.3 23 51 C24.98 47.37 26.96 43.74 29 40 C26.36 40 23.72 40 21 40 C21.66 38.68 22.32 37.36 23 36 C23 36.66 23 37.32 23 38 C26.63 37.01 30.26 36.02 34 35 C36.64 37.64 39.28 40.28 42 43 C42.33 38.71 42.66 34.42 43 30 C43.33 30 43.66 30 44 30 C44 39.57 44 49.14 44 59 C29.48 59 14.96 59 0 59 C0 39.53 0 20.06 0 0 Z " fill="#1B1E1E" transform="translate(0,1)"/>
<path d="M0 0 C0.02696365 1.79158489 0.04637917 3.58328473 0.0625 5.375 C0.07410156 6.37273438 0.08570313 7.37046875 0.09765625 8.3984375 C0 11 0 11 -1 13 C-0.34 13 0.32 13 1 13 C1.94512916 22.56761524 1.94512916 31.43238476 1 41 C0.54109375 40.59007812 0.0821875 40.18015625 -0.390625 39.7578125 C-1.00421875 39.21898437 -1.6178125 38.68015625 -2.25 38.125 C-2.85328125 37.59132812 -3.4565625 37.05765625 -4.078125 36.5078125 C-5.99761683 35.00186972 -7.73395911 33.90265529 -10 33 C-11.35085807 33.63040043 -12.68252676 34.30251417 -14 35 C-17.25 35.125 -17.25 35.125 -20 35 C-20.33 35.66 -20.66 36.32 -21 37 C-16.545 36.505 -16.545 36.505 -12 36 C-13.64178265 40.77609498 -16.26546702 44.79382904 -19 49 C-19.66 47.68 -20.32 46.36 -21 45 C-21.99 45 -22.98 45 -24 45 C-25.27441406 43.47119141 -25.27441406 43.47119141 -26.515625 41.3515625 C-26.96164063 40.59359375 -27.40765625 39.835625 -27.8671875 39.0546875 C-28.32351562 38.25289062 -28.77984375 37.45109375 -29.25 36.625 C-29.72179687 35.8309375 -30.19359375 35.036875 -30.6796875 34.21875 C-33.22937536 29.82016568 -33.22937536 29.82016568 -34 28 C-33.67 27.34 -33.34 26.68 -33 26 C-32.278125 26.639375 -31.55625 27.27875 -30.8125 27.9375 C-28.01808816 29.98673535 -26.38336726 30.61332946 -23 31 C-22.67 29.35 -22.34 27.7 -22 26 C-21.34 26 -20.68 26 -20 26 C-20.33 25.01 -20.66 24.02 -21 23 C-21.89586218 16.16905092 -21.89586218 16.16905092 -19.578125 13.14453125 C-16.12214635 10.03562738 -14.82948247 9 -10 9 C-9.67 12.3 -9.34 15.6 -9 19 C-8.67 18.67 -8.34 18.34 -8 18 C-8.08576354 16.29064396 -8.19386666 14.5823897 -8.3125 12.875 C-8.39002273 7.46955147 -7.22256022 4.97592564 -3.5078125 1.14453125 C-2 0 -2 0 0 0 Z " fill="#1C2022" transform="translate(42,4)"/>
<path d="M0 0 C0.33 0 0.66 0 1 0 C1.33 14.19 1.66 28.38 2 43 C3.98 41.02 5.96 39.04 8 37 C7.01 33.535 7.01 33.535 6 30 C4.68 29.67 3.36 29.34 2 29 C3.65 28.67 5.3 28.34 7 28 C7 28.99 7 29.98 7 31 C7.66 31 8.32 31 9 31 C10.14501953 32.56054688 10.14501953 32.56054688 11.3828125 34.71875 C12.04990234 35.86923828 12.04990234 35.86923828 12.73046875 37.04296875 C13.19066406 37.85378906 13.65085937 38.66460937 14.125 39.5 C14.59292969 40.31082031 15.06085937 41.12164062 15.54296875 41.95703125 C16.70201772 43.96762641 17.85396471 45.98196761 19 48 C19.99 47.34 20.98 46.68 22 46 C21.25 50.75 21.25 50.75 19 53 C17.515 50.525 17.515 50.525 16 48 C11.33234845 49.93510839 8.51333402 53.47478285 5.12109375 57.1015625 C3 59 3 59 0 59 C0 39.53 0 20.06 0 0 Z " fill="#151718" transform="translate(0,1)"/>
<path d="M0 0 C0 9.9 0 19.8 0 30 C-0.33 30 -0.66 30 -1 30 C-1 25.71 -1 21.42 -1 17 C-1.66 17 -2.32 17 -3 17 C-2.505 10.565 -2.505 10.565 -2 4 C-2.66 4 -3.32 4 -4 4 C-4.268125 4.598125 -4.53625 5.19625 -4.8125 5.8125 C-6 8 -6 8 -7.5625 9.25 C-9.68778288 11.83730089 -9.29349239 13.90173585 -9.1875 17.1875 C-9.16042969 18.27417969 -9.13335937 19.36085938 -9.10546875 20.48046875 C-9.05326172 21.72763672 -9.05326172 21.72763672 -9 23 C-9.66 23 -10.32 23 -11 23 C-11.495 18.05 -11.495 18.05 -12 13 C-17.01134685 14.76074349 -19.07823658 16.61735487 -22 21 C-22 20.34 -22 19.68 -22 19 C-22.61875 18.896875 -23.2375 18.79375 -23.875 18.6875 C-26 18 -26 18 -28 15 C-26.02 15.66 -24.04 16.32 -22 17 C-20.68 15.68 -19.36 14.36 -18 13 C-18.4640625 11.8553125 -18.4640625 11.8553125 -18.9375 10.6875 C-19.67893593 8.81210323 -20.36228217 6.91315348 -21 5 C-21.66 5 -22.32 5 -23 5 C-23 4.01 -23 3.02 -23 2 C-28.94 2 -34.88 2 -41 2 C-41 1.67 -41 1.34 -41 1 C-35.32169992 0.85742632 -29.64339583 0.71501403 -23.96508789 0.57275391 C-22.03181854 0.52429615 -20.0985503 0.47579363 -18.1652832 0.42724609 C-15.3927438 0.35763071 -12.62020045 0.28817425 -9.84765625 0.21875 C-8.97786636 0.19687622 -8.10807648 0.17500244 -7.21192932 0.15246582 C-1.11387171 0 -1.11387171 0 0 0 Z " fill="#171A1A" transform="translate(44,0)"/>
<path d="M0 0 C2.96175123 0.61277612 4.38058783 1.25372522 7 3 C7.51171875 5.6015625 7.51171875 5.6015625 7.6875 8.625 C7.78611328 10.12933594 7.78611328 10.12933594 7.88671875 11.6640625 C7.92410156 12.43492188 7.96148438 13.20578125 8 14 C7.34 14 6.68 14 6 14 C6 19.61 6 25.22 6 31 C5.67 31 5.34 31 5 31 C5 27.04 5 23.08 5 19 C3.906875 18.896875 2.81375 18.79375 1.6875 18.6875 C-1.85559629 18.02692273 -2.93243723 17.7972908 -5 15 C-5.99 15.495 -5.99 15.495 -7 16 C-7.33 15.34 -7.66 14.68 -8 14 C-9.32 14 -10.64 14 -12 14 C-12 10.04 -12 6.08 -12 2 C-10.30729167 3.33463542 -8.61458333 4.66927083 -6.921875 6.00390625 C-5.02188446 7.22889098 -5.02188446 7.22889098 -2.765625 6.65234375 C-1.89164063 6.32943359 -1.89164063 6.32943359 -1 6 C-1.33 5.01 -1.66 4.02 -2 3 C-1.34 2.01 -0.68 1.02 0 0 Z " fill="#443A32" transform="translate(14,16)"/>
<path d="M0 0 C3.06818182 4.09090909 3.06818182 4.09090909 2.859375 6.875 C1.66582478 9.82632418 -0.17135424 11.53099007 -2.4375 13.75 C-3.24058594 14.54921875 -4.04367188 15.3484375 -4.87109375 16.171875 C-7 18 -7 18 -9 18 C-10.06632177 8.64006446 -10.06632177 8.64006446 -7.51171875 4.7109375 C-2.82986111 0 -2.82986111 0 0 0 Z " fill="#EBB645" transform="translate(11,39)"/>
<path d="M0 0 C3.92867187 1.60057002 6.48228063 3.5731042 9 7 C9.42258578 10.70414693 9.29246313 14.28896784 9 18 C5.81580579 16.62845314 4.02887404 15.13830017 1.875 12.4375 C-0.20903634 9.78974334 -0.20903634 9.78974334 -3 8 C-2.45276317 4.62537285 -1.9451 2.91765 0 0 Z " fill="#EAB645" transform="translate(33,39)"/>
<path d="M0 0 C1.06816445 0.86807601 2.12918085 1.74494783 3.1875 2.625 C3.77917969 3.11226562 4.37085938 3.59953125 4.98046875 4.1015625 C7.54686166 6.51407112 9.74508093 9.29409712 12 12 C6.39 12 0.78 12 -5 12 C-3.97038242 6.85191212 -2.65675751 4.37079462 0 0 Z " fill="#7C59BA" transform="translate(28,47)"/>
<path d="M0 0 C4.05910468 1.35303489 4.9213069 3.34436731 7 7 C7 8.32 7 9.64 7 11 C1.39 11 -4.22 11 -10 11 C-6.77932365 7.19374613 -3.59755203 3.45918464 0 0 Z " fill="#7D5ABC" transform="translate(14,48)"/>
<path d="M0 0 C8.82098847 7.21041473 8.82098847 7.21041473 11 11 C10.25 14.3125 10.25 14.3125 9 17 C6.14974444 16.68330494 4.64757396 15.75970952 2.25 14.125 C-1.03148183 9.56738635 -0.42887542 5.44195258 0 0 Z " fill="#F6BD47" transform="translate(2,4)"/>
<path d="M0 0 C0.61042815 7.20305214 0.61042815 7.20305214 -2.25 10.9375 C-4.68045561 12.76034171 -6.03285617 13.67031735 -9 14 C-9.89772427 10.49071423 -10.30371763 8.6529929 -8.75 5.3125 C-4.72972973 0 -4.72972973 0 0 0 Z " fill="#7CAB91" transform="translate(32,13)"/>
<path d="M0 0 C5.61 0 11.22 0 17 0 C11.25 6.75 11.25 6.75 9 9 C5 9 5 9 3.515625 7.5390625 C2.88914062 6.59160156 2.88914062 6.59160156 2.25 5.625 C1.82203125 4.99851562 1.3940625 4.37203125 0.953125 3.7265625 C0 2 0 2 0 0 Z " fill="#7B59BA" transform="translate(23,2)"/>
<path d="M0 0 C5.61 0 11.22 0 17 0 C15.21739173 3.56521654 13.24007711 6.71455357 11 10 C7.81326038 8.59698853 5.67778594 6.92234929 3.25 4.4375 C2.63640625 3.81746094 2.0228125 3.19742187 1.390625 2.55859375 C0 1 0 1 0 0 Z " fill="#7C5ABB" transform="translate(4,2)"/>
<path d="M0 0 C1.07000333 9.39225141 1.07000333 9.39225141 -1.5234375 13.2890625 C-6.27314815 18 -6.27314815 18 -8 18 C-8.91290984 8.65112705 -8.91290984 8.65112705 -6.734375 4.7109375 C-2.74074074 0 -2.74074074 0 0 0 Z " fill="#F7BD47" transform="translate(42,4)"/>
<path d="M0 0 C0.886875 0.639375 1.77375 1.27875 2.6875 1.9375 C6.08369928 4.32164344 6.08369928 4.32164344 11 5 C11.33 9.95 11.66 14.9 12 20 C9.71946667 17.71946667 8.3401659 16.15590088 6.73828125 13.49609375 C6.34189453 12.83802734 5.94550781 12.17996094 5.53710938 11.50195312 C5.13298828 10.82068359 4.72886719 10.13941406 4.3125 9.4375 C3.68891602 8.40979492 3.68891602 8.40979492 3.05273438 7.36132812 C0 2.2533867 0 2.2533867 0 0 Z " fill="#EEAC4D" transform="translate(8,30)"/>
<path d="M0 0 C0.66 0 1.32 0 2 0 C0.32258065 3.74193548 0.32258065 3.74193548 -1.5625 5.25 C-3.68778288 7.83730089 -3.29349239 9.90173585 -3.1875 13.1875 C-3.16042969 14.27417969 -3.13335937 15.36085938 -3.10546875 16.48046875 C-3.05326172 17.72763672 -3.05326172 17.72763672 -3 19 C-3.66 19 -4.32 19 -5 19 C-5.495 14.05 -5.495 14.05 -6 9 C-11.01134685 10.76074349 -13.07823658 12.61735487 -16 17 C-16 16.34 -16 15.68 -16 15 C-16.928125 14.8453125 -16.928125 14.8453125 -17.875 14.6875 C-20 14 -20 14 -22 11 C-20.02 11.66 -18.04 12.32 -16 13 C-15.29875 12.05125 -14.5975 11.1025 -13.875 10.125 C-11.24310511 6.93550026 -8.9468337 6.23338553 -5 5 C-3.29503463 3.37253306 -1.62102968 1.71108689 0 0 Z " fill="#2A2B27" transform="translate(38,4)"/>
<path d="M0 0 C2.99324263 1.0975223 3.84610901 1.67682892 5.25 4.625 C5.4975 5.40875 5.745 6.1925 6 7 C5.360625 7.268125 4.72125 7.53625 4.0625 7.8125 C1.66868314 8.88667752 1.66868314 8.88667752 1 12 C-0.98 10.68 -2.96 9.36 -5 8 C-3.8141763 4.62496331 -2.72426311 2.35277269 0 0 Z " fill="#ED9768" transform="translate(21,6)"/>
<path d="M0 0 C3.44769066 0.31342642 5.55940337 0.67534985 8.375 2.75 C10.29619066 5.41011015 10.35659503 6.79064469 10 10 C6.6875 9.875 6.6875 9.875 3 9 C0.83577992 5.78857666 0 3.87553592 0 0 Z " fill="#7EAE94" transform="translate(9,23)"/>
<path d="M0 0 C0.33 0.66 0.66 1.32 1 2 C4.465 1.505 4.465 1.505 8 1 C9.125 2.6875 9.125 2.6875 10 5 C9.125 7.75 9.125 7.75 8 10 C8.928125 10.433125 8.928125 10.433125 9.875 10.875 C12 12 12 12 14 14 C13.67 14.99 13.34 15.98 13 17 C11.02 15.02 9.04 13.04 7 11 C5.02 13.97 5.02 13.97 3 17 C2.34 16.34 1.68 15.68 1 15 C2.98 11.37 4.96 7.74 7 4 C4.36 4 1.72 4 -1 4 C-0.67 2.68 -0.34 1.36 0 0 Z " fill="#2F2C28" transform="translate(22,37)"/>
<path d="M0 0 C-2.06241643 4.01628463 -3.85613631 6.125395 -8 8 C-10.8125 8.1875 -10.8125 8.1875 -13 8 C-12.62951193 5.4065835 -11.94398898 3.91934413 -10.4375 1.75 C-6.86856177 -0.81231463 -4.32918986 -0.28861266 0 0 Z " fill="#7FB095" transform="translate(36,31)"/>
<path d="M0 0 C0 3.96 0 7.92 0 12 C-1.65 12 -3.3 12 -5 12 C-7 9 -7 9 -6.875 6.5625 C-5.71786455 3.17374619 -3.87679744 0 0 0 Z " fill="#7757B4" transform="translate(42,18)"/>
<path d="M0 0 C1.32 0 2.64 0 4 0 C4 4.29 4 8.58 4 13 C1.69 11.02 -0.62 9.04 -3 7 C-2 3 -2 3 0 0 Z " fill="#7857B5" transform="translate(38,31)"/>
<path d="M0 0 C0.33 0.66 0.66 1.32 1 2 C-0.3984375 4.6015625 -0.3984375 4.6015625 -2.375 7.625 C-3.02210937 8.62789062 -3.66921875 9.63078125 -4.3359375 10.6640625 C-4.88507812 11.43492188 -5.43421875 12.20578125 -6 13 C-6.33 13 -6.66 13 -7 13 C-7.33 9.04 -7.66 5.08 -8 1 C-5.36 0.67 -2.72 0.34 0 0 Z " fill="#EEAA4D" transform="translate(29,40)"/>
<path d="M0 0 C0.33 0 0.66 0 1 0 C1 8.91 1 17.82 1 27 C0.67 27 0.34 27 0 27 C0.00902344 26.28714844 0.01804687 25.57429688 0.02734375 24.83984375 C-0.17944487 18.15967225 -1.23283514 14.66265483 -6.11328125 10.046875 C-7.9727703 8.76535508 -7.9727703 8.76535508 -10.23046875 9.328125 C-10.81441406 9.54984375 -11.39835937 9.7715625 -12 10 C-12.33 9.01 -12.66 8.02 -13 7 C-11.68 6.34 -10.36 5.68 -9 5 C-6.36 7.64 -3.72 10.28 -1 13 C-0.67 8.71 -0.34 4.42 0 0 Z " fill="#13171A" transform="translate(43,31)"/>
<path d="M0 0 C2.96175123 0.61277612 4.38058783 1.25372522 7 3 C7.29296875 5.1640625 7.29296875 5.1640625 7.1875 7.625 C7.16042969 8.44226562 7.13335937 9.25953125 7.10546875 10.1015625 C7.07066406 10.72804688 7.03585938 11.35453125 7 12 C6.2575 11.21625 5.515 10.4325 4.75 9.625 C2.45566682 7.43495469 0.87841142 6.17268614 -2 5 C-1.34 3.35 -0.68 1.7 0 0 Z " fill="#9174C6" transform="translate(14,16)"/>
<path d="M0 0 C0.33 0.99 0.66 1.98 1 3 C1.66 3 2.32 3 3 3 C4.7265625 5.51953125 4.7265625 5.51953125 6.625 8.8125 C7.25664062 9.89144531 7.88828125 10.97039063 8.5390625 12.08203125 C10 15 10 15 10 18 C9.34 18 8.68 18 8 18 C5 12.25 5 12.25 5 10 C4.44570312 10.49371094 3.89140625 10.98742188 3.3203125 11.49609375 C2.59585937 12.13675781 1.87140625 12.77742188 1.125 13.4375 C0.04605469 14.39462891 0.04605469 14.39462891 -1.0546875 15.37109375 C-3 17 -3 17 -5 18 C-3.44499019 14.18315774 -0.96404505 11.80804268 2 9 C1.34 6.69 0.68 4.38 0 2 C-1.32 1.67 -2.64 1.34 -4 1 C-2.68 0.67 -1.36 0.34 0 0 Z " fill="#20211D" transform="translate(6,29)"/>
<path d="M0 0 C2.475 0.495 2.475 0.495 5 1 C6.3125 3.5625 6.3125 3.5625 7 6 C4.69 7.98 2.38 9.96 0 12 C0 8.04 0 4.08 0 0 Z " fill="#7B58B9" transform="translate(2,32)"/>
<path d="M0 0 C0.66 0 1.32 0 2 0 C2.33 1.65 2.66 3.3 3 5 C1.453125 5.3403125 1.453125 5.3403125 -0.125 5.6875 C-4.34408258 6.86471856 -6.81536784 9.04838971 -10 12 C-9.45276317 8.62537285 -8.9451 6.91765 -7 4 C-5.02477154 2.95191959 -3.02518491 1.9479589 -1 1 C-0.67 0.67 -0.34 0.34 0 0 Z " fill="#D49B47" transform="translate(31,24)"/>
<path d="M0 0 C2.5 1.625 2.5 1.625 5 4 C5.38172649 7.18105412 5.43735246 9.12529507 4 12 C2.68 12 1.36 12 0 12 C0 8.04 0 4.08 0 0 Z " fill="#7D5ABC" transform="translate(2,18)"/>
<path d="M0 0 C0.66 0 1.32 0 2 0 C2 3.63 2 7.26 2 11 C1.34 11 0.68 11 0 11 C-0.33 9.02 -0.66 7.04 -1 5 C-2.65 6.65 -4.3 8.3 -6 10 C-5.49259538 5.60249328 -2.91706686 3.13051078 0 0 Z " fill="#E8BA46" transform="translate(40,4)"/>
<path d="M0 0 C0.33 0.66 0.66 1.32 1 2 C4.465 1.505 4.465 1.505 8 1 C8.66 2.32 9.32 3.64 10 5 C9.01 6.32 8.02 7.64 7 9 C6.67 8.34 6.34 7.68 6 7 C6.33 6.01 6.66 5.02 7 4 C4.36 4 1.72 4 -1 4 C-0.67 2.68 -0.34 1.36 0 0 Z " fill="#3D3829" transform="translate(22,37)"/>
<path d="M0 0 C0.66 0 1.32 0 2 0 C1.84402344 0.55429688 1.68804688 1.10859375 1.52734375 1.6796875 C1.33269531 2.40414063 1.13804688 3.12859375 0.9375 3.875 C0.74027344 4.59429688 0.54304687 5.31359375 0.33984375 6.0546875 C-0.21132607 8.07273593 -0.21132607 8.07273593 1 10 C-0.65 10 -2.3 10 -4 10 C-4 11.98 -4 13.96 -4 16 C-4.33 16 -4.66 16 -5 16 C-5.33 13.36 -5.66 10.72 -6 8 C-4.68 8 -3.36 8 -2 8 C-1.7834375 6.576875 -1.7834375 6.576875 -1.5625 5.125 C-1 2 -1 2 0 0 Z " fill="#1B1E1C" transform="translate(13,13)"/>
<path d="M0 0 C2.87793751 1.29010992 4.96183917 2.57361806 7 5 C7.33 5.99 7.66 6.98 8 8 C7.34 8 6.68 8 6 8 C6 9.32 6 10.64 6 12 C4.68 11.67 3.36 11.34 2 11 C2.99 11 3.98 11 5 11 C3.79157144 6.56909529 2.48331435 4.01887244 -1 1 C-0.67 0.67 -0.34 0.34 0 0 Z " fill="#384047" transform="translate(14,22)"/>
<path d="M0 0 C1.32 1.32 2.64 2.64 4 4 C4.66 3.34 5.32 2.68 6 2 C5.25 6.75 5.25 6.75 3 9 C2.566875 8.175 2.13375 7.35 1.6875 6.5 C1.130625 5.675 0.57375 4.85 0 4 C-0.99 4 -1.98 4 -3 4 C-3 3.34 -3 2.68 -3 2 C-2.01 2 -1.02 2 0 2 C0 1.34 0 0.68 0 0 Z " fill="#373030" transform="translate(16,45)"/>
<path d="M0 0 C-0.33 0.598125 -0.66 1.19625 -1 1.8125 C-2.20787988 4.05386471 -2.20787988 4.05386471 -2 7 C-2 7.33 -2 7.66 -2 8 C-3.65 8 -5.3 8 -7 8 C-6.44414399 4.1090079 -4.34122117 0 0 0 Z " fill="#79A88F" transform="translate(30,31)"/>
<path d="M0 0 C0.99 0.33 1.98 0.66 3 1 C1.60667426 4.36720387 0.0210714 5.9859524 -3 8 C-2.45276317 4.62537285 -1.9451 2.91765 0 0 Z " fill="#C29044" transform="translate(24,28)"/>
<path d="M0 0 C-1.39332574 3.36720387 -2.9789286 4.9859524 -6 7 C-6 4 -6 4 -4.125 1.8125 C-2 0 -2 0 0 0 Z " fill="#3B3429" transform="translate(40,4)"/>
</svg>
