<?xml version="1.0" encoding="UTF-8"?>
<svg version="1.1" xmlns="http://www.w3.org/2000/svg" width="55" height="60">
<path d="M0 0 C2.90952405 2.23553969 3.83613651 3.50840952 5 7 C5.721875 6.195625 6.44375 5.39125 7.1875 4.5625 C10.01392544 1.98731238 11.25675373 1.20795813 15 1 C16 2 16 2 16.3125 5.5625 C16.28625844 10.39969348 14.43443013 13.91363513 12 18 C11.34 18 10.68 18 10 18 C10.54723683 21.37462715 11.0549 23.08235 13 26 C13.70923808 31.96594388 12.95955133 37.36628992 11 43 C10.34 43 9.68 43 9 43 C8.855625 43.598125 8.71125 44.19625 8.5625 44.8125 C7.4400151 49.17771904 6.37653735 50.77772022 2.8125 53.5 C2.05582031 54.0878125 1.29914062 54.675625 0.51953125 55.28125 C-6.9726871 60.39222066 -13.08338772 60.87064564 -22 60 C-28.44261005 58.51754704 -32.06976288 55.45558196 -35.80859375 50.09765625 C-38.84610877 44.749638 -39.38504814 40.36524778 -39.375 34.3125 C-39.37628906 33.51537598 -39.37757812 32.71825195 -39.37890625 31.89697266 C-39.26699603 25.64398925 -38.09706985 20.50282947 -35 15 C-34.34 15 -33.68 15 -33 15 C-32.75636719 14.24976563 -32.51273438 13.49953125 -32.26171875 12.7265625 C-29.71451597 7.22208095 -22.84110196 2.56268041 -17.22265625 0.4375 C-11.64068431 -0.66123613 -5.61388671 -0.81295737 0 0 Z " fill="#F2C158" transform="translate(39,0)"/>
<path d="M0 0 C2.90952405 2.23553969 3.83613651 3.50840952 5 7 C5.721875 6.195625 6.44375 5.39125 7.1875 4.5625 C10.01392544 1.98731238 11.25675373 1.20795813 15 1 C16 2 16 2 16.3125 5.5625 C16.28625844 10.39969348 14.43443013 13.91363513 12 18 C11.34 18 10.68 18 10 18 C10.54723683 21.37462715 11.0549 23.08235 13 26 C13.70923808 31.96594388 12.95955133 37.36628992 11 43 C10.34 43 9.68 43 9 43 C8.855625 43.598125 8.71125 44.19625 8.5625 44.8125 C7.4400151 49.17771904 6.37653735 50.77772022 2.8125 53.5 C2.05582031 54.0878125 1.29914062 54.675625 0.51953125 55.28125 C-6.9726871 60.39222066 -13.08338772 60.87064564 -22 60 C-28.44261005 58.51754704 -32.06976288 55.45558196 -35.80859375 50.09765625 C-38.84610877 44.749638 -39.38504814 40.36524778 -39.375 34.3125 C-39.37628906 33.51537598 -39.37757812 32.71825195 -39.37890625 31.89697266 C-39.26699603 25.64398925 -38.09706985 20.50282947 -35 15 C-34.34 15 -33.68 15 -33 15 C-32.75636719 14.24976563 -32.51273438 13.49953125 -32.26171875 12.7265625 C-29.71451597 7.22208095 -22.84110196 2.56268041 -17.22265625 0.4375 C-11.64068431 -0.66123613 -5.61388671 -0.81295737 0 0 Z M-31 15 C-36.81273547 23.43555514 -37.14943271 33.05146174 -36 43 C-34.89063095 46.32810714 -33.44775956 48.51369304 -31 51 C-30.51917969 51.50917969 -30.03835937 52.01835938 -29.54296875 52.54296875 C-26.1874634 55.70369542 -23.53451179 56.74332952 -19 57 C-18.16082031 57.07347656 -17.32164063 57.14695313 -16.45703125 57.22265625 C-9.55676755 57.59384285 -5.24382884 56.55233493 0 52 C5.31451476 47.03074374 9.38448368 40.86257893 10.3125 33.53125 C10.4205629 29.37082853 10.37636876 27.56455313 8 24 C4.83527699 24.29556639 3.95434237 25.04929758 1.74609375 27.43359375 C0.98425781 28.42488281 0.22242188 29.41617187 -0.5625 30.4375 C-4.71748879 35.81165919 -4.71748879 35.81165919 -8 38 C-9.01529541 40.32671865 -10.01488198 42.6603447 -11 45 C-12 46 -13 47 -14 48 C-14 49.32 -14 50.64 -14 52 C-14.99 52 -15.98 52 -17 52 C-17.79295154 40.95154185 -17.79295154 40.95154185 -14.8125 37.375 C-13.884375 36.59125 -12.95625 35.8075 -12 35 C-11.15135793 33.44645979 -10.36510976 31.85807901 -9.625 30.25 C-7.88422241 26.49679481 -5.97930332 23.66499377 -3.25 20.5625 C0.2016827 16.32531402 0.96611033 12.75916182 1.41796875 7.3828125 C1.20650224 4.88898427 1.20650224 4.88898427 -0.69140625 3.21484375 C-12.11573844 -2.79694527 -23.95784511 6.38459775 -31 15 Z " fill="#333937" transform="translate(39,0)"/>
<path d="M0 0 C2.90952405 2.23553969 3.83613651 3.50840952 5 7 C5.721875 6.195625 6.44375 5.39125 7.1875 4.5625 C10.01392544 1.98731238 11.25675373 1.20795813 15 1 C16 2 16 2 16.25 4.875 C16 8 16 8 14.5 9.875 C14.005 10.24625 13.51 10.6175 13 11 C13.33 8.69 13.66 6.38 14 4 C7.65099883 9.12867367 0.64897401 15.05307798 -2 23 C-3.32 22.67 -4.64 22.34 -6 22 C-5.195625 21.236875 -4.39125 20.47375 -3.5625 19.6875 C0.09375182 15.40121609 -0.10598037 10.41463355 0 5 C-4.53277026 1.97815316 -8.69312456 2.22695122 -14 3 C-22.47180115 6.2669849 -30.04261253 13.29072181 -34 21.5 C-36.22433756 28.75836467 -36.54137476 38.5534827 -34.05078125 45.73828125 C-31.28149728 50.37705029 -27.6734029 54.2361706 -22.375 55.75 C-21.26125 55.8325 -20.1475 55.915 -19 56 C-18.15953125 56.07476562 -17.3190625 56.14953125 -16.453125 56.2265625 C-9.53617164 56.58960701 -5.33449671 55.43077021 0 51 C2.39915598 48.85619782 2.39915598 48.85619782 4 47 C4.99 47.495 4.99 47.495 6 48 C2.75130657 54.15541914 -1.68807764 57.26786095 -8 60 C-15.97662073 61.03798933 -24.3237333 60.92151899 -31 56 C-37.3092113 49.4727598 -39.38978832 43.22061232 -39.375 34.3125 C-39.37628906 33.51537598 -39.37757812 32.71825195 -39.37890625 31.89697266 C-39.26699603 25.64398925 -38.09706985 20.50282947 -35 15 C-34.34 15 -33.68 15 -33 15 C-32.75636719 14.24976563 -32.51273438 13.49953125 -32.26171875 12.7265625 C-29.71451597 7.22208095 -22.84110196 2.56268041 -17.22265625 0.4375 C-11.64068431 -0.66123613 -5.61388671 -0.81295737 0 0 Z " fill="#454844" transform="translate(39,0)"/>
<path d="M0 0 C1.9375 0.375 1.9375 0.375 4 1 C5.78753797 4.57507594 5.57286639 8.15122773 5 12 C1.87191771 20.91099458 -2.86490348 27.23039431 -10.89453125 32.1640625 C-13.54844055 33.2177482 -15.71295532 33.26550773 -18.5625 33.25 C-19.98755859 33.25773437 -19.98755859 33.25773437 -21.44140625 33.265625 C-24 33 -24 33 -27 31 C-26.236875 30.87625 -25.47375 30.7525 -24.6875 30.625 C-21.79732864 30.11897208 -21.79732864 30.11897208 -19 28 C-18.65846063 26.33499557 -18.32550502 24.66821323 -18 23 C-17 22 -16 21 -15 20 C-14.731875 19.05125 -14.46375 18.1025 -14.1875 17.125 C-12.91048982 13.7644469 -11.55075105 12.61695264 -8.73046875 10.5 C-5.27632588 7.5058897 -2.69971529 3.66618141 0 0 Z " fill="#F2C159" transform="translate(44,24)"/>
<path d="M0 0 C2.5625 0.3125 2.5625 0.3125 4.375 1.375 C6.17092137 4.30518751 5.75227574 6.9597953 5.5625 10.3125 C6.2225 9.3225 6.8825 8.3325 7.5625 7.3125 C7.8925 10.6125 8.2225 13.9125 8.5625 17.3125 C9.8825 17.6425 11.2025 17.9725 12.5625 18.3125 C8.61506402 20.94412399 5.31138056 21.87930187 0.5625 21.3125 C-4.00754879 18.7476767 -6.84953914 15.6599103 -8.9375 10.875 C-9.1025 10.029375 -9.2675 9.18375 -9.4375 8.3125 C-8.7775 7.9825 -8.1175 7.6525 -7.4375 7.3125 C-6.41883771 5.65717377 -5.41939187 3.98989862 -4.4375 2.3125 C-2.4375 0.3125 -2.4375 0.3125 0 0 Z " fill="#ECBC57" transform="translate(13.4375,34.6875)"/>
<path d="M0 0 C0.95648438 -0.01675781 1.91296875 -0.03351562 2.8984375 -0.05078125 C6.09539053 0.37517381 7.46529452 0.91168726 9.625 3.3125 C9.90234375 5.94140625 9.90234375 5.94140625 9.5625 8.875 C9.42134766 10.33099609 9.42134766 10.33099609 9.27734375 11.81640625 C8.625 14.3125 8.625 14.3125 5.625 16.3125 C4.965 16.3125 4.305 16.3125 3.625 16.3125 C3.026875 16.6425 2.42875 16.9725 1.8125 17.3125 C-0.85152786 18.53034131 -2.47804907 18.75818476 -5.375 18.3125 C-7.25 16.875 -7.25 16.875 -8.375 14.3125 C-8.31720387 11.25981348 -7.90764026 8.31582098 -7.375 5.3125 C-6.570625 5.18875 -5.76625 5.065 -4.9375 4.9375 C-4.091875 4.73125 -3.24625 4.525 -2.375 4.3125 C-2.045 3.6525 -1.715 2.9925 -1.375 2.3125 C-3.355 2.3125 -5.335 2.3125 -7.375 2.3125 C-4.78299871 -0.27950129 -3.59977771 0.01447632 0 0 Z " fill="#DEB354" transform="translate(30.375,1.6875)"/>
<path d="M0 0 C2.90952405 2.23553969 3.83613651 3.50840952 5 7 C5.721875 6.195625 6.44375 5.39125 7.1875 4.5625 C10.01392544 1.98731238 11.25675373 1.20795813 15 1 C16 2 16 2 16.25 4.875 C16 8 16 8 14.5 9.875 C14.005 10.24625 13.51 10.6175 13 11 C13.33 8.69 13.66 6.38 14 4 C7.65099883 9.12867367 0.64897401 15.05307798 -2 23 C-3.32 22.67 -4.64 22.34 -6 22 C-5.195625 21.236875 -4.39125 20.47375 -3.5625 19.6875 C0.09375182 15.40121609 -0.10598037 10.41463355 0 5 C-4.52373632 1.98417579 -8.70249023 2.20849788 -14 3 C-20.51592682 5.73461473 -25.82581126 10.27574072 -31 15 C-31.25390625 12.7265625 -31.25390625 12.7265625 -31 10 C-22.69070941 0.7674549 -11.94721519 -1.73009844 0 0 Z " fill="#323734" transform="translate(39,0)"/>
<path d="M0 0 C-0.53164696 4.69621477 -2.67494816 8.03545537 -5.25 11.875 C-5.65532959 12.49197754 -6.06065918 13.10895508 -6.47827148 13.74462891 C-9.22240441 17.90061027 -12.04222758 21.99269543 -15 26 C-16.9375 25.6875 -16.9375 25.6875 -19 25 C-19.33 24.01 -19.66 23.02 -20 22 C-19.01 20.515 -19.01 20.515 -18 19 C-17.34 19 -16.68 19 -16 19 C-15.85111328 18.14535156 -15.85111328 18.14535156 -15.69921875 17.2734375 C-14.14001039 12.20383266 -5.67223375 0 0 0 Z " fill="#75AA8B" transform="translate(53,4)"/>
<path d="M0 0 C0 2.31 0 4.62 0 7 C3.26545761 8.88391785 6.28111761 9.49287967 10 10 C9.01 10.33 8.02 10.66 7 11 C7 11.66 7 12.32 7 13 C6.2575 13.4125 5.515 13.825 4.75 14.25 C1.76268669 15.89076054 1.76268669 15.89076054 -0.125 19.1875 C-0.74375 20.115625 -1.3625 21.04375 -2 22 C-2.99 22 -3.98 22 -5 22 C-5.0270203 19.24993392 -5.04684883 16.50013454 -5.0625 13.75 C-5.07087891 12.97269531 -5.07925781 12.19539063 -5.08789062 11.39453125 C-5.09111328 10.64042969 -5.09433594 9.88632812 -5.09765625 9.109375 C-5.10289307 8.41811523 -5.10812988 7.72685547 -5.11352539 7.01464844 C-4.99240406 4.86520065 -4.6985234 3.0379799 -4 1 C-2 0 -2 0 0 0 Z " fill="#F5C359" transform="translate(8,21)"/>
<path d="M0 0 C0.66 0.33 1.32 0.66 2 1 C-1.24553596 7.14943657 -5.68658013 10.28130245 -12 13 C-19.45555044 13.87309546 -26.40808913 13.76680621 -33 10 C-33 9.34 -33 8.68 -33 8 C-30 7 -30 7 -27 7.9375 C-21.38848674 9.64586767 -15.16499216 10.32402172 -9.65625 8.01953125 C-5.99310884 5.79841021 -2.85429169 3.21107815 0 0 Z " fill="#4F4A34" transform="translate(43,47)"/>
<path d="M0 0 C3.0625 0.3125 3.0625 0.3125 4.9375 1.5 C6.49573149 4.01048407 6.55881357 5.40552053 6.0625 8.3125 C4.375 10.6875 4.375 10.6875 2.0625 12.3125 C-1.32904295 12.15099795 -2.52046757 11.72953243 -4.9375 9.3125 C-5.1875 5.8125 -5.1875 5.8125 -4.9375 2.3125 C-2.9375 0.3125 -2.9375 0.3125 0 0 Z " fill="#31342B" transform="translate(13.9375,18.6875)"/>
<path d="M0 0 C1 1 1 1 1.25 4.375 C1 8 1 8 -0.1875 9.9375 C-2.68780874 11.40319823 -4.15130656 11.49852135 -7 11 C-9.2855347 8.87208838 -9.92303658 7.52591672 -10.375 4.4375 C-10 2 -10 2 -8.9375 0.125 C-5.85798867 -1.66310335 -3.35666727 -0.74592606 0 0 Z " fill="#242A28" transform="translate(32,9)"/>
<path d="M0 0 C1.8125 1.1875 1.8125 1.1875 3 3 C3.4334014 5.88934264 3.42525784 7.35092224 1.8125 9.8125 C-0.64907776 11.42525784 -2.11065736 11.4334014 -5 11 C-6.8125 9.8125 -6.8125 9.8125 -8 8 C-8.4334014 5.11065736 -8.42525784 3.64907776 -6.8125 1.1875 C-4.35092224 -0.42525784 -2.88934264 -0.4334014 0 0 Z " fill="#2A312D" transform="translate(16,35)"/>
<path d="M0 0 C0.33 0.66 0.66 1.32 1 2 C-2.21101127 2.99317325 -4.79157388 2.93532031 -8.125 2.6875 C-17.63390253 2.59875024 -24.29826979 8.88102894 -31 15 C-31.25390625 12.7265625 -31.25390625 12.7265625 -31 10 C-22.11593859 0.12882065 -12.33927409 -0.42877786 0 0 Z " fill="#23292A" transform="translate(39,0)"/>
<path d="M0 0 C0.33 0 0.66 0 1 0 C1.01417969 1.0621875 1.02835937 2.124375 1.04296875 3.21875 C1.27147641 11.34133317 1.48463308 17.5907051 7 24 C7.598125 24.825 8.19625 25.65 8.8125 26.5 C9.204375 26.995 9.59625 27.49 10 28 C8.68 28.33 7.36 28.66 6 29 C-0.90843663 20.24496868 -0.90843663 20.24496868 -2 16 C-1.67 15.01 -1.34 14.02 -1 13 C-0.77548542 10.77425665 -0.59217122 8.54418481 -0.4375 6.3125 C-0.35371094 5.13300781 -0.26992188 3.95351563 -0.18359375 2.73828125 C-0.12300781 1.83464844 -0.06242188 0.93101563 0 0 Z " fill="#4F4D3D" transform="translate(2,27)"/>
<path d="M0 0 C0.66 0.33 1.32 0.66 2 1 C1.2884375 2.051875 1.2884375 2.051875 0.5625 3.125 C-1.08739857 6.16081337 -1.60368464 8.59168786 -2 12 C-1.34 12 -0.68 12 0 12 C0.28875 11.38125 0.5775 10.7625 0.875 10.125 C2 8 2 8 4 6 C4 10 4 10 2.5625 11.5 C2.046875 11.995 1.53125 12.49 1 13 C0.28552357 15.10332891 0.28552357 15.10332891 0 17 C-0.99 17 -1.98 17 -3 17 C-4.84617176 13.30765648 -4.48712159 9.02982407 -4 5 C-2 1.875 -2 1.875 0 0 Z " fill="#363733" transform="translate(25,35)"/>
<path d="M0 0 C1.1446875 0.680625 1.1446875 0.680625 2.3125 1.375 C7.3401517 4.13453815 13.40320851 3.7591885 19 4 C19 4.66 19 5.32 19 6 C4.21867882 6.55353075 4.21867882 6.55353075 -2 3 C-2 2.34 -2 1.68 -2 1 C-1.34 0.67 -0.68 0.34 0 0 Z " fill="#202628" transform="translate(12,54)"/>
<path d="M0 0 C2.5 0.125 2.5 0.125 3.5 1.125 C3.625 3.625 3.625 3.625 3.5 6.125 C2.5 7.125 2.5 7.125 0 7.25 C-2.5 7.125 -2.5 7.125 -3.5 6.125 C-3.625 3.625 -3.625 3.625 -3.5 1.125 C-2.5 0.125 -2.5 0.125 0 0 Z " fill="#7266A6" transform="translate(27.5,9.875)"/>
<path d="M0 0 C0.66 0 1.32 0 2 0 C1.34 2.97 0.68 5.94 0 9 C-0.66 9 -1.32 9 -2 9 C-2.2165625 9.8971875 -2.2165625 9.8971875 -2.4375 10.8125 C-2.8872439 12.56150404 -3.42892341 14.28677023 -4 16 C-4.66 16 -5.32 16 -6 16 C-6.88336837 13.5332355 -7.1312406 12.36140628 -6.22265625 9.859375 C-5.83980469 9.16328125 -5.45695312 8.4671875 -5.0625 7.75 C-4.68222656 7.04359375 -4.30195312 6.3371875 -3.91015625 5.609375 C-3.60980469 5.07828125 -3.30945312 4.5471875 -3 4 C-2.34 4.33 -1.68 4.66 -1 5 C-0.67 3.35 -0.34 1.7 0 0 Z " fill="#4D4E45" transform="translate(50,34)"/>
<path d="M0 0 C1.67542976 0.28604898 3.34385343 0.61781233 5 1 C5.38218767 2.65614657 5.71395102 4.32457024 6 6 C5 7 5 7 2.5 7.125 C0 7 0 7 -1 6 C-1.125 3.5 -1.125 3.5 -1 1 C-0.67 0.67 -0.34 0.34 0 0 Z " fill="#D08788" transform="translate(12,21)"/>
<path d="M0 0 C2.125 0.375 2.125 0.375 4 1 C4.38218767 2.65614657 4.71395102 4.32457024 5 6 C4 7 4 7 1.4375 7.0625 C0.2309375 7.0315625 0.2309375 7.0315625 -1 7 C-1.625 4.625 -1.625 4.625 -2 2 C-1.34 1.34 -0.68 0.68 0 0 Z " fill="#73A688" transform="translate(12,37)"/>
<path d="M0 0 C-0.47348414 4.1666604 -1.04696841 6.92884715 -4 10 C-4.66 10 -5.32 10 -6 10 C-6.22692276 6.67179946 -6.32162419 4.58198664 -4.6875 1.625 C-3 0 -3 0 0 0 Z " fill="#7367A8" transform="translate(29,37)"/>
<path d="M0 0 C0.99 0 1.98 0 3 0 C2.67 5.61 2.34 11.22 2 17 C0 15 0 15 -0.1953125 11.5234375 C-0.18201493 10.14049032 -0.15816232 8.75761346 -0.125 7.375 C-0.11597656 6.66859375 -0.10695312 5.9621875 -0.09765625 5.234375 C-0.07407603 3.48943902 -0.03820461 1.74467705 0 0 Z " fill="#262C2E" transform="translate(0,25)"/>
<path d="M0 0 C2.1875 0.3125 2.1875 0.3125 4 1 C4.36923077 6.53846154 4.36923077 6.53846154 2.5 8.875 C1.7575 9.431875 1.7575 9.431875 1 10 C1.33 7.69 1.66 5.38 2 3 C0.02 3.99 0.02 3.99 -2 5 C-2.33 4.34 -2.66 3.68 -3 3 C-1.75 1.4375 -1.75 1.4375 0 0 Z " fill="#252B2A" transform="translate(51,1)"/>
<path d="M0 0 C0 3.23830467 -0.29194726 4.31591712 -2 7 C-4.625 9.25 -4.625 9.25 -7 11 C-7.4375 8.875 -7.4375 8.875 -7 6 C-4.87310854 3.723853 -2.4976567 1.8541278 0 0 Z " fill="#2D302C" transform="translate(15,4)"/>
<path d="M0 0 C0.66 0.33 1.32 0.66 2 1 C-1.34969325 6.90184049 -1.34969325 6.90184049 -4 9 C-4.99 9 -5.98 9 -7 9 C-5.44499019 5.18315774 -2.96404505 2.80804268 0 0 Z " fill="#282C2B" transform="translate(43,47)"/>
<path d="M0 0 C0.66 0.99 1.32 1.98 2 3 C1.01 3 0.02 3 -1 3 C-3.00309329 3.31421071 -5.00371336 3.6451046 -7 4 C-7.33 5.32 -7.66 6.64 -8 8 C-8.36075949 3.55063291 -8.36075949 3.55063291 -6.8125 1.1875 C-4.36655047 -0.41501866 -2.86618213 -0.4409511 0 0 Z " fill="#3B3F33" transform="translate(16,35)"/>
<path d="M0 0 C0.66 0.99 1.32 1.98 2 3 C0.125 6.875 0.125 6.875 -1 8 C-2.66617115 8.04063832 -4.33388095 8.042721 -6 8 C-6.33 7.34 -6.66 6.68 -7 6 C-5.5459375 5.62875 -5.5459375 5.62875 -4.0625 5.25 C-2.5465625 4.63125 -2.5465625 4.63125 -1 4 C-0.03122943 1.96756452 -0.03122943 1.96756452 0 0 Z " fill="#47443A" transform="translate(31,12)"/>
<path d="M0 0 C2.0625 0.4375 2.0625 0.4375 4 1 C3.25 2.9375 3.25 2.9375 2 5 C-0.125 5.75 -0.125 5.75 -2 6 C-1.125 1.125 -1.125 1.125 0 0 Z " fill="#73A688" transform="translate(31,30)"/>
<path d="M0 0 C0.20625 0.61875 0.4125 1.2375 0.625 1.875 C2.54775888 4.84653645 4.66594527 5.13024659 8 6 C7.34 6.66 6.68 7.32 6 8 C1.44444444 7.44444444 1.44444444 7.44444444 0 6 C-0.04080783 4.00041636 -0.04254356 1.99954746 0 0 Z " fill="#433C36" transform="translate(10,23)"/>
<path d="M0 0 C0.75 1.5625 0.75 1.5625 1 4 C-0.02332869 6.54719859 -1.27272296 8.86333587 -3 11 C-3.99 11.33 -4.98 11.66 -6 12 C-4.90841447 9.73286083 -3.74896492 7.58830248 -2.4375 5.4375 C-0.88141236 2.99345222 -0.88141236 2.99345222 0 0 Z " fill="#CCA852" transform="translate(31,38)"/>
<path d="M0 0 C0.33 0.99 0.66 1.98 1 3 C1.66 3.33 2.32 3.66 3 4 C2.54625 4.433125 2.0925 4.86625 1.625 5.3125 C-0.20024334 7.10798342 -0.20024334 7.10798342 -2 10 C-2.6875 8.375 -2.6875 8.375 -3 6 C-1.5625 2.75 -1.5625 2.75 0 0 Z " fill="#414435" transform="translate(30,26)"/>
<path d="M0 0 C0.99 0.33 1.98 0.66 3 1 C2.67 4.3 2.34 7.6 2 11 C1.67 11 1.34 11 1 11 C1 8.69 1 6.38 1 4 C0.01 4.33 -0.98 4.66 -2 5 C-1.34 3.35 -0.68 1.7 0 0 Z " fill="#CCA650" transform="translate(7,17)"/>
<path d="M0 0 C1.67542976 0.28604898 3.34385343 0.61781233 5 1 C4.01 1.33 3.02 1.66 2 2 C2 2.66 2 3.32 2 4 C1.34 4 0.68 4 0 4 C-0.33 4.66 -0.66 5.32 -1 6 C-1.042721 4.33388095 -1.04063832 2.66617115 -1 1 C-0.67 0.67 -0.34 0.34 0 0 Z " fill="#C58182" transform="translate(12,21)"/>
<path d="M0 0 C0.99 0.33 1.98 0.66 3 1 C1.515 3.475 1.515 3.475 0 6 C-1.32 5.67 -2.64 5.34 -4 5 C-2.68 3.35 -1.36 1.7 0 0 Z " fill="#384136" transform="translate(37,17)"/>
<path d="M0 0 C0 3.90838866 -1.50567876 5.11594107 -4 8 C-4.66 7.67 -5.32 7.34 -6 7 C-4.52307692 2.32307692 -4.52307692 2.32307692 -1.875 0.6875 C-1.25625 0.460625 -0.6375 0.23375 0 0 Z " fill="#1C2426" transform="translate(44,9)"/>
<path d="M0 0 C0 0.33 0 0.66 0 1 C-1.65 1.33 -3.3 1.66 -5 2 C-4.67 2.66 -4.34 3.32 -4 4 C-5.65 4 -7.3 4 -9 4 C-9.33 3.01 -9.66 2.02 -10 1 C-6.52674819 -0.1577506 -3.63932552 -0.06866652 0 0 Z " fill="#FDCF5C" transform="translate(34,3)"/>
<path d="M0 0 C1.32 0 2.64 0 4 0 C4.6875 1.8125 4.6875 1.8125 5 4 C3.5625 5.75 3.5625 5.75 2 7 C1.34 4.69 0.68 2.38 0 0 Z " fill="#4A493C" transform="translate(38,2)"/>
</svg>
