<?xml version="1.0" encoding="UTF-8"?>
<svg version="1.1" xmlns="http://www.w3.org/2000/svg" width="44" height="60">
<path d="M0 0 C14.52 0 29.04 0 44 0 C44 19.8 44 39.6 44 60 C29.48 60 14.96 60 0 60 C0 40.2 0 20.4 0 0 Z " fill="#3E483E" transform="translate(0,0)"/>
<path d="M0 0 C14.52 0 29.04 0 44 0 C44 19.8 44 39.6 44 60 C29.48 60 14.96 60 0 60 C0 40.2 0 20.4 0 0 Z M5 6 C4.9770963 12.81766851 4.95716759 19.63520459 4.94506836 26.45288086 C4.94002667 28.77417451 4.93319349 31.09546497 4.92456055 33.41674805 C4.91248775 36.74528795 4.90677021 40.07378602 4.90234375 43.40234375 C4.89718246 44.44712387 4.89202118 45.49190399 4.88670349 46.56834412 C4.88662796 47.52926468 4.88655243 48.49018524 4.88647461 49.48022461 C4.884254 50.33071884 4.88203339 51.18121307 4.87974548 52.05747986 C4.78519716 54.00588545 4.78519716 54.00588545 6 55 C8.36398468 55.1007812 10.69811311 55.13973215 13.0625 55.1328125 C13.76898682 55.13376923 14.47547363 55.13472595 15.20336914 55.13571167 C16.69970793 55.13639333 18.19604967 55.13454005 19.69238281 55.13037109 C21.99030157 55.12502257 24.28802486 55.13031651 26.5859375 55.13671875 C28.03645877 55.13605797 29.48697991 55.1347768 30.9375 55.1328125 C31.6291626 55.13483673 32.3208252 55.13686096 33.03344727 55.13894653 C36.29735638 55.40230733 36.29735638 55.40230733 39 54 C39.09311889 52.49581261 39.11746028 50.98728644 39.11352539 49.48022461 C39.11344986 48.51930405 39.11337433 47.55838348 39.11329651 46.56834412 C39.10813522 45.523564 39.10297394 44.47878387 39.09765625 43.40234375 C39.09553383 41.80635094 39.09553383 41.80635094 39.09336853 40.17811584 C39.08775064 36.76454917 39.07519511 33.351047 39.0625 29.9375 C39.05748731 27.62955824 39.052924 25.32161545 39.04882812 23.01367188 C39.03862433 17.34240279 39.01905243 11.67127399 39 6 C27.78 6 16.56 6 5 6 Z " fill="#7FB196" transform="translate(0,0)"/>
<path d="M0 0 C10.56 0 21.12 0 32 0 C32 10.23 32 20.46 32 31 C31.67 31 31.34 31 31 31 C31 28.36 31 25.72 31 23 C30.27296875 23.103125 29.5459375 23.20625 28.796875 23.3125 C24.79518775 22.86538411 23.74481466 21.08084495 21.25 18 C17.49535368 13.18682984 15.88529392 10.07942211 16 4 C15.67 4 15.34 4 15 4 C15.185625 5.093125 15.37125 6.18625 15.5625 7.3125 C15.60385228 13.07080485 11.94288638 16.62029125 8.45703125 20.875 C6 23 6 23 3.19921875 23.3125 C2.47347656 23.209375 1.74773438 23.10625 1 23 C1.33 25.97 1.66 28.94 2 32 C1.34 32 0.68 32 0 32 C0 21.44 0 10.88 0 0 Z " fill="#111313" transform="translate(6,6)"/>
<path d="M0 0 C14.52 0 29.04 0 44 0 C44 19.8 44 39.6 44 60 C29.48 60 14.96 60 0 60 C0 40.2 0 20.4 0 0 Z M2 2 C2 20.48 2 38.96 2 58 C15.2 58 28.4 58 42 58 C42 39.52 42 21.04 42 2 C28.8 2 15.6 2 2 2 Z " fill="#171B1B" transform="translate(0,0)"/>
<path d="M0 0 C3.21043882 1.38188453 5.04936365 2.92421903 7.25 5.625 C7.77078125 6.25664062 8.2915625 6.88828125 8.828125 7.5390625 C9.40820312 8.26222656 9.40820312 8.26222656 10 9 C8.53289058 13.84146109 5.6487256 17.55948972 2 21 C1.34 21 0.68 21 0 21 C-1.43581474 19.38542921 -2.80144783 17.70780925 -4.125 16 C-4.84945313 15.071875 -5.57390625 14.14375 -6.3203125 13.1875 C-6.87460938 12.465625 -7.42890625 11.74375 -8 11 C-6.63629701 8.00779732 -5.05091917 5.70973471 -2.875 3.25 C-2.33617187 2.63640625 -1.79734375 2.0228125 -1.2421875 1.390625 C-0.62730469 0.70226562 -0.62730469 0.70226562 0 0 Z " fill="#F6A854" transform="translate(21,20)"/>
<path d="M0 0 C14.52 0 29.04 0 44 0 C43.67 19.14 43.34 38.28 43 58 C42.67 58 42.34 58 42 58 C42 39.52 42 21.04 42 2 C28.8 2 15.6 2 2 2 C2 20.48 2 38.96 2 58 C1.67 58 1.34 58 1 58 C0.505 29.29 0.505 29.29 0 0 Z " fill="#27312E" transform="translate(0,0)"/>
<path d="M0 0 C1.48828125 1.27734375 1.48828125 1.27734375 3 3 C3.061875 4.175625 3.12375 5.35125 3.1875 6.5625 C3.70675168 12.5062745 7.70981058 17.09775324 12 21 C14.64856292 21.84146784 14.64856292 21.84146784 17 22 C17 22.66 17 23.32 17 24 C15.35 24 13.7 24 12 24 C11.74476562 24.57234375 11.48953125 25.1446875 11.2265625 25.734375 C9.86912841 28.24173733 8.28025896 30.1330456 6.375 32.25 C5.74335938 32.95640625 5.11171875 33.6628125 4.4609375 34.390625 C3.97882812 34.92171875 3.49671875 35.4528125 3 36 C-0.387199 34.5611898 -2.3594104 32.77880501 -4.75 30 C-5.36359375 29.29875 -5.9771875 28.5975 -6.609375 27.875 C-8 26 -8 26 -8 24 C-9.65 24 -11.3 24 -13 24 C-13 23.34 -13 22.68 -13 22 C-11.7315625 21.7834375 -11.7315625 21.7834375 -10.4375 21.5625 C-5.38530184 19.26604629 -2.49868401 15.93942752 0 11 C0.54504179 7.24741142 0.44257578 3.75838163 0 0 Z M1 13 C-0.4302165 14.44744802 -1.79721162 15.9580522 -3.125 17.5 C-3.84945313 18.3353125 -4.57390625 19.170625 -5.3203125 20.03125 C-5.87460938 20.6809375 -6.42890625 21.330625 -7 22 C-5.75888656 25.45483019 -4.41180798 28.04495035 -2 30.8125 C-1.484375 31.41707031 -0.96875 32.02164063 -0.4375 32.64453125 C0.91322394 34.22868092 0.91322394 34.22868092 3 34 C4.43581474 32.38542921 5.80144783 30.70780925 7.125 29 C7.84945313 28.071875 8.57390625 27.14375 9.3203125 26.1875 C9.87460937 25.465625 10.42890625 24.74375 11 24 C9.64763423 21.06120516 8.10057341 18.70767089 6 16.25 C5.2265625 15.32960938 5.2265625 15.32960938 4.4375 14.390625 C3.09376748 12.76823624 3.09376748 12.76823624 1 13 Z " fill="#2B2A22" transform="translate(20,7)"/>
<path d="M0 0 C2.35994931 1.97465147 4.6885558 3.96967739 7 6 C7.66773438 6.57621094 8.33546875 7.15242188 9.0234375 7.74609375 C13.90004778 12.21466113 13.90004778 12.21466113 14.4375 16.4375 C14.2209375 17.7059375 14.2209375 17.7059375 14 19 C11.80078125 19.3125 11.80078125 19.3125 9 19 C4.88337801 15.43967828 0.66655702 10.89592002 -0.578125 5.48828125 C-0.5625 3.3125 -0.5625 3.3125 0 0 Z " fill="#F4C14A" transform="translate(23,10)"/>
<path d="M0 0 C0.79152903 4.66122649 0.68407582 6.88472255 -1.828125 10.98046875 C-6.20669551 16.58416909 -6.20669551 16.58416909 -9 19 C-11.80078125 19.3125 -11.80078125 19.3125 -14 19 C-14.47253071 15.98130869 -14.59856488 13.85300963 -12.79736328 11.28613281 C-11.11400514 9.48761639 -9.3702451 7.7983473 -7.5625 6.125 C-6.95083984 5.53203125 -6.33917969 4.9390625 -5.70898438 4.328125 C-1.19636557 0 -1.19636557 0 0 0 Z " fill="#F3C14A" transform="translate(21,10)"/>
<path d="M0 0 C0.72574219 0.103125 1.45148437 0.20625 2.19921875 0.3125 C2.67174946 3.33119131 2.79778363 5.45949037 0.99658203 8.02636719 C-0.68677611 9.82488361 -2.43053615 11.5141527 -4.23828125 13.1875 C-4.84994141 13.78046875 -5.46160156 14.3734375 -6.09179688 14.984375 C-10.60441568 19.3125 -10.60441568 19.3125 -11.80078125 19.3125 C-12.59231028 14.65127351 -12.48485707 12.42777745 -9.97265625 8.33203125 C-3.79292194 0.4231991 -3.79292194 0.4231991 0 0 Z " fill="#F8C34B" transform="translate(34.80078125,30.6875)"/>
<path d="M0 0 C2.19921875 -0.3125 2.19921875 -0.3125 5 0 C9.11662199 3.56032172 13.33344298 8.10407998 14.578125 13.51171875 C14.5625 15.6875 14.5625 15.6875 14 19 C11.64005069 17.02534853 9.3114442 15.03032261 7 13 C6.33226562 12.42378906 5.66453125 11.84757812 4.9765625 11.25390625 C0.09995222 6.78533887 0.09995222 6.78533887 -0.4375 2.5625 C-0.293125 1.716875 -0.14875 0.87125 0 0 Z " fill="#F6C34A" transform="translate(7,31)"/>
<path d="M0 0 C4.29 0 8.58 0 13 0 C11.00205931 3.99588138 9.08986847 6.14752513 5.9375 9.25 C5.03902344 10.14203125 4.14054688 11.0340625 3.21484375 11.953125 C1 14 1 14 0 14 C0 9.38 0 4.76 0 0 Z " fill="#A97DBD" transform="translate(7,7)"/>
<path d="M0 0 C4.29 0 8.58 0 13 0 C13 4.29 13 8.58 13 13 C9.21047909 11.10523955 7.1893105 9.45852168 4.25 6.5 C3.45078125 5.7059375 2.6515625 4.911875 1.828125 4.09375 C0 2 0 2 0 0 Z " fill="#AB7EBF" transform="translate(24,7)"/>
<path d="M0 0 C0.33 0 0.66 0 1 0 C1 5.61 1 11.22 1 17 C-9.56 17 -20.12 17 -31 17 C-31 12.05 -31 7.1 -31 2 C-30.67 2 -30.34 2 -30 2 C-30 6.29 -30 10.58 -30 15 C-25.71 15 -21.42 15 -17 15 C-17 14.34 -17 13.68 -17 13 C-15.68 13 -14.36 13 -13 13 C-13 13.66 -13 14.32 -13 15 C-8.71 15 -4.42 15 0 15 C0 10.05 0 5.1 0 0 Z " fill="#232A29" transform="translate(37,38)"/>
<path d="M0 0 C4.89599781 4.01471821 8.98528179 8.10400219 13 13 C8.71 13 4.42 13 0 13 C0 8.71 0 4.42 0 0 Z " fill="#B584CA" transform="translate(7,40)"/>
<path d="M0 0 C0 4.29 0 8.58 0 13 C-4.29 13 -8.58 13 -13 13 C-2.08 0 -2.08 0 0 0 Z " fill="#B685CB" transform="translate(37,40)"/>
<path d="M0 0 C0.680625 0.680625 1.36125 1.36125 2.0625 2.0625 C2.51367188 2.51238281 2.96484375 2.96226563 3.4296875 3.42578125 C4.56501192 4.56392986 5.69449869 5.70791175 6.8203125 6.85546875 C7.43648437 7.48066406 8.05265625 8.10585937 8.6875 8.75 C9.26886719 9.34296875 9.85023437 9.9359375 10.44921875 10.546875 C11.95513974 12.09641804 11.95513974 12.09641804 14 13 C14 8.71 14 4.42 14 0 C14.33 0 14.66 0 15 0 C15 9.9 15 19.8 15 30 C14.67 30 14.34 30 14 30 C14.06703125 29.12859375 14.1340625 28.2571875 14.203125 27.359375 C14.29716634 20.11819155 13.78265336 16.02911666 8.73535156 10.82128906 C6.22142921 8.45999247 3.64678936 6.21246347 1 4 C0.34 3.34 -0.32 2.68 -1 2 C-0.67 1.34 -0.34 0.68 0 0 Z " fill="#1C1C1C" transform="translate(23,7)"/>
<path d="M0 0 C2.58882944 2.22097968 3.39830149 3.60673752 3.6875 7 C3.78611328 8.0209375 3.78611328 8.0209375 3.88671875 9.0625 C3.98280813 10.70595978 4 12.35373355 4 14 C3.1646875 14.061875 3.1646875 14.061875 2.3125 14.125 C-1.24030274 15.46930374 -2.70958953 18.00974189 -5 21 C-5.33 20.01 -5.66 19.02 -6 18 C-4.78515625 16.5625 -4.78515625 16.5625 -3.0625 15 C-0.00952382 11.72139972 0.41512559 9.51644031 0.375 5.0625 C0.2795008 3.37307372 0.16445227 1.68411303 0 0 Z " fill="#393426" transform="translate(20,7)"/>
</svg>
