<?xml version="1.0" encoding="UTF-8"?>
<svg version="1.1" xmlns="http://www.w3.org/2000/svg" width="40" height="60">
<path d="M0 0 C3.48251022 0.79331314 5.52680714 3.02104874 8.0234375 5.4609375 C8.7246875 5.8734375 9.4259375 6.2859375 10.1484375 6.7109375 C15.49910438 11.70489325 17.3629206 20.41213774 18.0234375 27.4609375 C18.32885711 37.08731125 16.78833681 45.54057805 11.0234375 53.4609375 C8.4296875 55.15625 8.4296875 55.15625 6.0234375 56.4609375 C5.4459375 57.1828125 4.8684375 57.9046875 4.2734375 58.6484375 C1.21160091 61.11491698 -1.09176977 61.02458067 -4.9375 60.85546875 C-6.9765625 60.4609375 -6.9765625 60.4609375 -8.6640625 58.6484375 C-9.0971875 57.9265625 -9.5303125 57.2046875 -9.9765625 56.4609375 C-11.430625 55.873125 -11.430625 55.873125 -12.9140625 55.2734375 C-17.94608526 52.29530158 -19.03022501 47.59030352 -20.6640625 42.1875 C-23.51905776 30.88647708 -22.34297406 19.36749511 -16.3359375 9.296875 C-14.55606942 6.89303018 -12.64646344 5.76165847 -9.9765625 4.4609375 C-9.3784375 3.7390625 -8.7803125 3.0171875 -8.1640625 2.2734375 C-5.48980036 0.0576203 -3.43863625 -0.16617945 0 0 Z " fill="#7266A7" transform="translate(21.9765625,-0.4609375)"/>
<path d="M0 0 C4.79890731 3.80538353 7.44991984 8.09945903 9 14 C10.03985705 24.31393096 8.80069206 31.67903112 2.8125 40.0625 C-0.59525214 42.41006258 -2.76913537 42.79388205 -6.8515625 42.54296875 C-9.7600232 41.80792141 -11.35059648 40.28388346 -13.00390625 37.8125 C-17.66420105 29.33259103 -18.58331399 20.5035048 -16.2734375 11.015625 C-13.56287474 3.56708667 -8.85987014 -2.78548948 0 0 Z " fill="#F6C052" transform="translate(24,9)"/>
<path d="M0 0 C3.48251022 0.79331314 5.52680714 3.02104874 8.0234375 5.4609375 C8.7246875 5.8734375 9.4259375 6.2859375 10.1484375 6.7109375 C15.49910438 11.70489325 17.3629206 20.41213774 18.0234375 27.4609375 C18.32885711 37.08731125 16.78833681 45.54057805 11.0234375 53.4609375 C8.4296875 55.15625 8.4296875 55.15625 6.0234375 56.4609375 C5.4459375 57.1828125 4.8684375 57.9046875 4.2734375 58.6484375 C1.21160091 61.11491698 -1.09176977 61.02458067 -4.9375 60.85546875 C-6.9765625 60.4609375 -6.9765625 60.4609375 -8.6640625 58.6484375 C-9.0971875 57.9265625 -9.5303125 57.2046875 -9.9765625 56.4609375 C-11.430625 55.873125 -11.430625 55.873125 -12.9140625 55.2734375 C-17.94608526 52.29530158 -19.03022501 47.59030352 -20.6640625 42.1875 C-23.51905776 30.88647708 -22.34297406 19.36749511 -16.3359375 9.296875 C-14.55606942 6.89303018 -12.64646344 5.76165847 -9.9765625 4.4609375 C-9.3784375 3.7390625 -8.7803125 3.0171875 -8.1640625 2.2734375 C-5.48980036 0.0576203 -3.43863625 -0.16617945 0 0 Z M-9.9765625 7.4609375 C-10.9665625 7.7909375 -11.9565625 8.1209375 -12.9765625 8.4609375 C-18.95188861 18.04821447 -21.13160855 27.79661743 -19.2265625 38.8984375 C-18.35649481 42.55388967 -17.17886677 45.37771153 -14.9765625 48.4609375 C-14.5228125 49.3271875 -14.0690625 50.1934375 -13.6015625 51.0859375 C-11.71452208 53.84391965 -9.8905213 54.89188276 -6.9765625 56.4609375 C-6.3165625 57.1209375 -5.6565625 57.7809375 -4.9765625 58.4609375 C-2.06118221 58.96135896 -2.06118221 58.96135896 1.0234375 58.4609375 C3.14835588 56.6695141 3.14835588 56.6695141 5.0234375 54.4609375 C6.2609375 53.873125 6.2609375 53.873125 7.5234375 53.2734375 C12.97667023 49.31984377 14.46066882 41.82512938 15.71484375 35.4765625 C16.07915929 33.0969825 16.24847577 30.86134576 16.0234375 28.4609375 C15.6934375 28.1309375 15.3634375 27.8009375 15.0234375 27.4609375 C14.9409375 26.1615625 14.8584375 24.8621875 14.7734375 23.5234375 C14.2065373 17.99616054 12.36805566 12.92887438 9.0234375 8.4609375 C6.52577208 7.28154768 6.52577208 7.28154768 4.0234375 6.4609375 C3.0025 5.4090625 3.0025 5.4090625 1.9609375 4.3359375 C-2.73888379 -0.21227665 -6.11179557 4.08954507 -9.9765625 7.4609375 Z " fill="#2E3234" transform="translate(21.9765625,-0.4609375)"/>
<path d="M0 0 C5.48273768 2.42260502 8.12021813 6.24043627 10.75 11.5 C13.37878081 19.14079697 13.09293282 28.42391795 10.09375 35.921875 C7.97147763 39.9541925 5.75837493 43.34044232 2 46 C-1.54787034 46.95200265 -4.44619333 46.90658333 -8 46 C-12.66260641 42.65508671 -16.17328849 37.26852166 -17.58984375 31.66796875 C-18.96955184 22.69329614 -18.84221833 13.90420934 -14 6 C-10.00568668 1.06642983 -6.52677055 -1.08779509 0 0 Z M-12 6 C-16.48691978 13.53214074 -16.9818367 21.41874727 -16 30 C-14.66979184 35.17152355 -12.77188667 41.16266198 -8 44 C-4.8658897 44.60679203 -2.13224191 44.62869372 1 44 C5.88009992 40.63815339 8.48688215 35.63980289 10 30 C11.17673819 19.71839864 9.84249709 12.23006549 3.75 3.9375 C0.55235661 1.68461488 -1.24244609 1.30204942 -5.078125 1.59765625 C-8.41958768 2.2971901 -9.77284622 3.40165393 -12 6 Z " fill="#2A2D2F" transform="translate(23,7)"/>
<path d="M0 0 C0.66 0.99 1.32 1.98 2 3 C1.13671875 5.27734375 1.13671875 5.27734375 -0.3125 7.9375 C-4.69252444 17.00869817 -5.0569042 26.40520822 -2 36 C-0.53888984 38.79897943 -0.53888984 38.79897943 1 41 C1.8125 43.1875 1.8125 43.1875 2 45 C1.34 45.66 0.68 46.32 0 47 C-6.75795941 34.41407559 -6.75795941 34.41407559 -7 28 C-7.03738281 27.31679688 -7.07476563 26.63359375 -7.11328125 25.9296875 C-7.43840672 16.10747591 -5.24692706 8.29094581 0 0 Z " fill="#373A3C" transform="translate(7,7)"/>
<path d="M0 0 C0.33 0 0.66 0 1 0 C1.57073287 5.70732874 -0.27768499 9.19123918 -3 14 C-3.7115625 15.3921875 -3.7115625 15.3921875 -4.4375 16.8125 C-6.9464952 20.32509328 -9.97995776 21.65998592 -14 23 C-14 22.01 -14 21.02 -14 20 C-15.65 20 -17.3 20 -19 20 C-19 19.67 -19 19.34 -19 19 C-17.205625 18.9690625 -17.205625 18.9690625 -15.375 18.9375 C-11.84569003 18.48150066 -10.09569059 17.62656556 -7.6875 15 C-5.06381842 11.56575013 -3.75469518 8.06716603 -2.640625 3.91796875 C-2 2 -2 2 0 0 Z " fill="#6D629F" transform="translate(36,34)"/>
<path d="M0 0 C0.33 0.99 0.66 1.98 1 3 C0.2575 3.4125 -0.485 3.825 -1.25 4.25 C-4.05452477 5.82644405 -4.05452477 5.82644405 -5.75 8.1875 C-8.8096422 10.65221178 -11.11029981 10.56169478 -14.953125 10.3984375 C-17 10 -17 10 -18.8125 8.125 C-19.4003125 7.073125 -19.4003125 7.073125 -20 6 C-22.08334635 4.7483533 -22.08334635 4.7483533 -24 4 C-24 3.34 -24 2.68 -24 2 C-18.33566434 3.63636364 -18.33566434 3.63636364 -16.5 5.625 C-14.97056297 7.28451309 -14.97056297 7.28451309 -12.0625 7.4375 C-8.29050813 6.89864402 -7.47901637 5.79888945 -5 3 C-3.36021682 1.95650161 -1.69905634 0.94392019 0 0 Z " fill="#292D2F" transform="translate(32,50)"/>
<path d="M0 0 C0.66 0.33 1.32 0.66 2 1 C1.46551979 5.54308177 -0.28759399 8.35762621 -3 12 C-3.86625 13.2065625 -3.86625 13.2065625 -4.75 14.4375 C-7.40145708 16.27878964 -8.14335944 16.1273912 -11.25 15.75 C-12.4875 15.5025 -13.725 15.255 -15 15 C-15 14.67 -15 14.34 -15 14 C-13.4221875 13.9071875 -13.4221875 13.9071875 -11.8125 13.8125 C-7.19762475 12.829002 -5.84798176 11.71819841 -3 8 C-1.78289126 5.36048708 -0.89436729 2.77724581 0 0 Z " fill="#383931" transform="translate(32,37)"/>
<path d="M0 0 C3 1 3 1 4.1328125 2.70703125 C4.46023437 3.40183594 4.78765625 4.09664062 5.125 4.8125 C5.45757813 5.49957031 5.79015625 6.18664063 6.1328125 6.89453125 C6.98292957 8.95855423 7.69362167 10.78572027 8 13 C7.34 13.66 6.68 14.32 6 15 C4.99267601 13.06629769 3.99436712 11.12789694 3 9.1875 C2.443125 8.10855469 1.88625 7.02960937 1.3125 5.91796875 C0 3 0 3 0 0 Z " fill="#383C3F" transform="translate(1,39)"/>
<path d="M0 0 C3.63160618 1.81580309 4.59301173 6.34926831 6 10 C6.75 13.0625 6.75 13.0625 7 15 C6.67 15 6.34 15 6 15 C5.67 16.65 5.34 18.3 5 20 C4.67 20 4.34 20 4 20 C3.96261719 19.43152344 3.92523438 18.86304687 3.88671875 18.27734375 C3.54763776 14.29480426 3.12091556 10.84019413 1.4375 7.1875 C0 4 0 4 0 0 Z " fill="#3C3E46" transform="translate(32,7)"/>
<path d="M0 0 C0.99 0.495 0.99 0.495 2 1 C2.37400786 3.32716 2.70764733 5.66117862 3 8 C3.33 8.33 3.66 8.66 4 9 C4.32049797 12.84597567 3.59555725 15.50971852 2 19 C1.67 19 1.34 19 1 19 C0.67 12.73 0.34 6.46 0 0 Z " fill="#776AAE" transform="translate(34,19)"/>
<path d="M0 0 C3.2102122 3.2102122 2.98974759 6.37460314 3.0625 10.8125 C3.041875 11.864375 3.02125 12.91625 3 14 C2.34 14 1.68 14 1 14 C1 15.98 1 17.96 1 20 C0.67 20 0.34 20 0 20 C0 13.4 0 6.8 0 0 Z " fill="#262B2A" transform="translate(37,20)"/>
<path d="M0 0 C2.09388756 1.88449881 3.44005678 3.67383694 5 6.0625 C7.25123152 9.3689963 8.77645221 10.715454 12.6875 11.625 C13.450625 11.74875 14.21375 11.8725 15 12 C15 12.33 15 12.66 15 13 C10.69155261 13.4223968 8.7073874 13.56269452 5.25 10.8125 C0 4.25 0 4.25 0 0 Z " fill="#242929" transform="translate(7,40)"/>
<path d="M0 0 C0.33 0 0.66 0 1 0 C2.59456558 6.17894161 2.59456558 12.82105839 1 19 C0.67 19 0.34 19 0 19 C-0.69508823 12.48755792 -1.31909709 6.4489191 0 0 Z " fill="#6C619C" transform="translate(3,21)"/>
<path d="M0 0 C2.64 0.33 5.28 0.66 8 1 C8.33 2.32 8.66 3.64 9 5 C3.5 5.36666667 3.5 5.36666667 1.125 3.625 C0 2 0 2 0 0 Z " fill="#796BB1" transform="translate(14,53)"/>
<path d="M0 0 C2.70780274 1.48929151 4.51036383 3.01691268 6.5 5.375 C6.5 6.035 6.5 6.695 6.5 7.375 C4.30876943 6.39272423 2.72520352 5.63091309 1.125 3.8125 C-1.20402275 1.75221065 -3.47538534 1.7110683 -6.5 1.375 C-3.98497929 -0.30168047 -2.99068896 -0.74767224 0 0 Z " fill="#383830" transform="translate(24.5,7.625)"/>
<path d="M0 0 C0.33 0 0.66 0 1 0 C1.33 3.96 1.66 7.92 2 12 C1.34 12 0.68 12 0 12 C-1.17661508 8.32307787 -1.14475933 4.8361222 -1 1 C-0.67 0.67 -0.34 0.34 0 0 Z " fill="#282C2D" transform="translate(1,27)"/>
<path d="M0 0 C0.33 0.99 0.66 1.98 1 3 C-1.3125 4.5625 -1.3125 4.5625 -4 6 C-4.99 5.67 -5.98 5.34 -7 5 C-4.69 3.35 -2.38 1.7 0 0 Z " fill="#222727" transform="translate(32,50)"/>
<path d="M0 0 C-1.49097658 3.7952131 -3.75700849 5.61042731 -7 8 C-4.18918919 0 -4.18918919 0 0 0 Z " fill="#31332B" transform="translate(19,18)"/>
<path d="M0 0 C0.66 0.33 1.32 0.66 2 1 C0.02 3.31 -1.96 5.62 -4 8 C-4.66 7.67 -5.32 7.34 -6 7 C-2.25 1.125 -2.25 1.125 0 0 Z " fill="#E4B850" transform="translate(15,10)"/>
</svg>
