<?xml version="1.0" encoding="UTF-8"?>
<svg version="1.1" xmlns="http://www.w3.org/2000/svg" width="46" height="60">
<path d="M0 0 C15.18 0 30.36 0 46 0 C46 19.8 46 39.6 46 60 C30.82 60 15.64 60 0 60 C0 40.2 0 20.4 0 0 Z " fill="#7467A9" transform="translate(0,0)"/>
<path d="M0 0 C10.23 0 20.46 0 31 0 C31 14.52 31 29.04 31 44 C20.77 44 10.54 44 0 44 C0 29.48 0 14.96 0 0 Z " fill="#77AE8E" transform="translate(7,8)"/>
<path d="M0 0 C15.18 0 30.36 0 46 0 C46 19.8 46 39.6 46 60 C30.82 60 15.64 60 0 60 C0 40.2 0 20.4 0 0 Z M2 2 C2 20.48 2 38.96 2 58 C15.86 58 29.72 58 44 58 C44 39.52 44 21.04 44 2 C30.14 2 16.28 2 2 2 Z " fill="#1D2221" transform="translate(0,0)"/>
<path d="M0 0 C11.55 0 23.1 0 35 0 C35 15.84 35 31.68 35 48 C23.45 48 11.9 48 0 48 C0 32.16 0 16.32 0 0 Z M2 2 C2 16.52 2 31.04 2 46 C12.23 46 22.46 46 33 46 C33 31.48 33 16.96 33 2 C22.77 2 12.54 2 2 2 Z " fill="#283031" transform="translate(5,6)"/>
<path d="M0 0 C21.78 0.495 21.78 0.495 44 1 C44 1.33 44 1.66 44 2 C30.14 2 16.28 2 2 2 C2 20.48 2 38.96 2 58 C15.86 58 29.72 58 44 58 C44 58.33 44 58.66 44 59 C29.48 59.33 14.96 59.66 0 60 C0 40.2 0 20.4 0 0 Z " fill="#23282D" transform="translate(0,0)"/>
</svg>
