<?xml version="1.0" encoding="UTF-8"?>
<svg id="Layer_1" xmlns="http://www.w3.org/2000/svg" version="1.1" viewBox="0 0 132 135">
  <!-- Generator: Adobe Illustrator 29.1.0, SVG Export Plug-In . SVG Version: 2.1.0 Build 142)  -->
  <defs>
    <style>
      .st0 {
        stroke-width: 1px;
      }

      .st0, .st1, .st2 {
        fill: #e89909;
        stroke: #2c2c2c;
      }

      .st3 {
        fill: #2c2c2c;
      }

      .st1 {
        stroke-width: 1.2px;
      }

      .st2 {
        stroke-width: 1.4px;
      }
    </style>
  </defs>
  <path class="st3" d="M81.6,11c.6-2.4,4-2.4,4.6,0l3.7,13.6c.2.8.9,1.5,1.7,1.7l13.6,3.7c2.4.6,2.4,4,0,4.6l-13.6,3.7c-.8.2-1.5.9-1.7,1.7l-3.7,13.6c-.6,2.4-4,2.4-4.6,0l-3.7-13.6c-.2-.8-.9-1.5-1.7-1.7l-13.6-3.7c-2.4-.6-2.4-4,0-4.6l13.6-3.7c.8-.2,1.5-.9,1.7-1.7l3.7-13.6Z"/>
  <path class="st1" d="M79.8,8.7c.5-1.8,3-1.8,3.5,0l3.7,13.6c.3,1,1.1,1.8,2.1,2.1l13.6,3.7c1.8.5,1.8,3,0,3.5l-13.6,3.7c-1,.3-1.8,1.1-2.1,2.1l-3.7,13.6c-.5,1.8-3,1.8-3.5,0l-3.7-13.6c-.3-1-1.1-1.8-2.1-2.1l-13.6-3.7c-1.8-.5-1.8-3,0-3.5l13.6-3.7c1-.3,1.8-1.1,2.1-2.1l3.7-13.6Z"/>
  <path class="st3" d="M105.7,93.7c.5-1.9,3.2-1.9,3.7,0l3,11c.2.7.7,1.2,1.4,1.4l11,3c1.9.5,1.9,3.2,0,3.7l-11,3c-.7.2-1.2.7-1.4,1.4l-3,11c-.5,1.9-3.2,1.9-3.7,0l-3-11c-.2-.7-.7-1.2-1.4-1.4l-11-3c-1.9-.5-1.9-3.2,0-3.7l11-3c.7-.2,1.2-.7,1.4-1.4l3-11Z"/>
  <path class="st0" d="M104.3,91.9c.4-1.4,2.4-1.4,2.8,0l3,11c.2.8.9,1.5,1.7,1.7l11,3c1.4.4,1.4,2.4,0,2.8l-11,3c-.8.2-1.5.9-1.7,1.7l-3,11c-.4,1.4-2.4,1.4-2.8,0l-3-11c-.2-.8-.9-1.5-1.7-1.7l-11-3c-1.4-.4-1.4-2.4,0-2.8l11-3c.8-.2,1.5-.9,1.7-1.7l3-11Z"/>
  <path class="st3" d="M36.6,62.3c.8-2.9,4.8-2.9,5.6,0l4.4,16.5c.3,1,1,1.8,2,2l16.5,4.4c2.9.8,2.9,4.8,0,5.6l-16.5,4.4c-1,.3-1.8,1-2,2l-4.4,16.5c-.8,2.9-4.8,2.9-5.6,0l-4.4-16.5c-.3-1-1-1.8-2-2l-16.5-4.4c-2.9-.8-2.9-4.8,0-5.6l16.5-4.4c1-.3,1.8-1,2-2l4.4-16.5Z"/>
  <path class="st2" d="M34.4,59.6c.6-2.1,3.6-2.1,4.2,0l4.4,16.5c.3,1.2,1.3,2.2,2.6,2.6l16.5,4.4c2.1.6,2.1,3.6,0,4.2l-16.5,4.4c-1.2.3-2.2,1.3-2.6,2.6l-4.4,16.5c-.6,2.1-3.6,2.1-4.2,0l-4.4-16.5c-.3-1.2-1.3-2.2-2.6-2.6l-16.5-4.4c-2.1-.6-2.1-3.6,0-4.2l16.5-4.4c1.2-.3,2.2-1.3,2.6-2.6l4.4-16.5Z"/>
</svg>